<?xml version="1.0" standalone="no"?>
<!DOCTYPE svg PUBLIC "-//W3C//DTD SVG 20010904//EN"
 "http://www.w3.org/TR/2001/REC-SVG-20010904/DTD/svg10.dtd">
<svg version="1.0" xmlns="http://www.w3.org/2000/svg"
 width="192.000000pt" height="192.000000pt" viewBox="0 0 192.000000 192.000000"
 preserveAspectRatio="xMidYMid meet">
<metadata>
Created by potrace 1.11, written by Peter Selinger 2001-2013
</metadata>
<g transform="translate(0.000000,192.000000) scale(0.100000,-0.100000)"
fill="#000000" stroke="none">
<path d="M795 1905 c-33 -7 -73 -16 -90 -19 -75 -16 -202 -76 -290 -137 -122
-84 -226 -199 -299 -330 -32 -59 -81 -184 -90 -229 -3 -19 -9 -46 -12 -60 -14
-57 -13 -276 2 -345 26 -117 32 -137 69 -220 117 -261 367 -469 644 -537 112
-27 299 -33 396 -13 39 9 83 18 99 21 47 9 177 68 241 108 219 140 390 378
431 601 2 11 8 43 13 70 12 65 12 227 0 290 -6 28 -12 59 -13 70 -13 84 -69
211 -141 320 -135 204 -356 354 -595 403 -110 23 -274 26 -365 7z"/>
</g>
</svg>
